<svg xmlns="http://www.w3.org/2000/svg" width="140" height="130" viewBox="0 0 140 130"><path fill="#EC1C24" d="M102.157 40.478c-2.867-4.294-12.663-7.083-17.53-8.078-8.564-1.75-18.344-1.772-26.897.073-5.516 1.19-15.793 3.814-18.483 9.333-3.877 7.953 4.59 29.476 8.58 36.66 3.716 6.694 8.665 12.978 15.33 18.69 2.67 2.587 5.34 3.812 8.007 3.756 2.604-.06 5.208-1.335 7.814-3.757 7.604-6.795 13.434-14.344 17.54-22.623 3.412-6.88 10.348-27 5.64-34.054z"/><path fill="#FFF" d="M96.964 66.99c-.782 2.158-1.655 4.374-2.678 6.433-4.16 8.39-10.095 15.604-16.988 21.89-1.664 1.516-3.848 3.056-6.188 3.105-2.38.05-4.6-1.58-6.274-3.105C59.58 90.52 54.78 85.205 51.086 79.12c-.747-1.227.203-3.848.946-4.952 6.12-9.115 31.034-14.546 47.217-14.354-.66 2.42-1.43 4.822-2.286 7.177zM99.966 56.96c-13.403.298-37.345-.644-49.68 3.44-2.185.725-4.248 1.7-6.126 3.062-.303-.892-.59-1.787-.865-2.685-1.28-4.18-3.822-13.748-1.81-17.88 2.206-4.522 12.24-7.01 16.77-7.988 8.25-1.78 17.608-1.758 25.872-.07 4.038.827 13.596 3.48 15.96 7.02 2.15 3.227.863 10.807-.12 15.1z"/><path fill="#EC1C24" d="M49.95 50.696h.335c.55 0 .914-.203 1.2-.55.305-.355.505-.965.683-1.8.178-.833.234-1.44.085-1.8-.14-.346-.42-.548-.968-.548h-.336l-1 4.698zm-1.92-6.652h4.04c3.445 0 4.148 1.847 3.605 4.398-.55 2.6-2.587 4.208-5.233 4.208H46.2l1.83-8.606zM64.42 49.766c-.442 2.075-2.153 3.112-4.75 3.112-2.6 0-3.87-1.037-3.43-3.112l1.216-5.722h3.41l-1.187 5.578c-.145.68.12.942.478.942.36 0 .735-.26.88-.94l1.187-5.58h3.408l-1.214 5.722zM73.77 49.468c-.504 2.373-2.62 3.41-4.753 3.41-3.017 0-4.02-1.836-3.44-4.566.487-2.684 2.47-4.496 5.378-4.496 2.17 0 3.817.882 3.292 3.41h-3.123c.16-.978-.157-1.168-.573-1.168-.882 0-1.157.905-1.452 2.288-.28 1.313-.414 2.29.442 2.29.442 0 .796-.263 1.036-1.168h3.194zM79.48 49.17l.013-3.242h-.022l-1.44 3.242h1.45zm-1.734-5.126h4.423l.937 8.606h-3.53l-.04-1.382H77.07l-.64 1.382h-3.267l4.583-8.606zM85.72 46.356H83.6l.49-2.312h7.652l-.49 2.312H89.13l-1.338 6.294h-3.41M92.39 44.044h3.406l-1.828 8.606h-3.41"/></svg>