<?xml version="1.0" encoding="utf-8"?>
<!-- Generator: Adobe Illustrator 16.0.0, SVG Export Plug-In . SVG Version: 6.00 Build 0)  -->
<!DOCTYPE svg PUBLIC "-//W3C//DTD SVG 1.1//EN" "http://www.w3.org/Graphics/SVG/1.1/DTD/svg11.dtd">
<svg version="1.1" id="Capa_1" xmlns="http://www.w3.org/2000/svg" xmlns:xlink="http://www.w3.org/1999/xlink" x="0px" y="0px"
	 width="140px" height="130px" viewBox="0 0 140 130" enable-background="new 0 0 140 130" xml:space="preserve">
<g>
	<path fill="#EC1C24" d="M36.694,73.225c-2.154,2.152-5.18,3.406-8.225,3.406c-3.046,0-6.073-1.253-8.226-3.406
		c-2.152-2.149-3.407-5.18-3.407-8.223c0-3.044,1.255-6.07,3.407-8.225c2.153-2.153,5.18-3.406,8.225-3.406
		c3.045,0,6.07,1.252,8.224,3.405C38.846,58.93,40.1,61.955,40.1,65S38.846,71.072,36.694,73.225z M37.059,56.41
		c-2.25-2.25-5.41-3.56-8.59-3.56c-3.182,0-6.343,1.31-8.592,3.56c-2.25,2.25-3.558,5.41-3.558,8.59c0,3.18,1.31,6.344,3.558,8.59
		c2.25,2.25,5.41,3.561,8.59,3.561c3.182,0,6.342-1.311,8.59-3.561c2.25-2.246,3.56-5.41,3.56-8.59c0-3.18-1.31-6.34-3.56-8.59
		H37.059z"/>
	<path fill="#EC1C24" d="M27.8,64.614v0.771l0.67,0.386l0.667-0.384v-0.772l-0.668-0.385L27.8,64.614 M29.05,62.766v-1.638
		c0-0.153-0.064-0.303-0.17-0.412c-0.108-0.106-0.26-0.17-0.41-0.17c-0.153,0-0.305,0.063-0.412,0.17
		c-0.108,0.11-0.17,0.26-0.17,0.412v1.638l0.58,0.335L29.05,62.766L29.05,62.766z M24.825,66.436
		c-0.133,0.074-0.23,0.203-0.27,0.352c-0.04,0.146-0.02,0.311,0.057,0.439c0.076,0.133,0.207,0.23,0.354,0.271
		c0.146,0.04,0.308,0.021,0.44-0.058l1.42-0.819v-0.668l-0.583-0.337L24.825,66.436z M32.114,66.436l-1.42-0.82l-0.58,0.337v0.668
		l1.42,0.819c0.13,0.078,0.292,0.098,0.44,0.059c0.145-0.04,0.276-0.141,0.352-0.27c0.075-0.133,0.097-0.295,0.06-0.44
		C32.344,66.639,32.246,66.51,32.114,66.436z"/>
	<path fill="#EC1C24" d="M36.863,69.967c-0.034,0.016-0.072,0.02-0.108,0.014l-2.55-0.477c-0.064-0.012-0.123-0.045-0.165-0.09
		c-0.043-0.05-0.07-0.109-0.072-0.175c-0.017-0.183-0.088-0.36-0.204-0.5c-0.117-0.142-0.276-0.246-0.453-0.296
		c-0.176-0.047-0.366-0.041-0.537,0.021c-0.31,0.106-0.645,0.15-0.972,0.12c-0.324-0.029-0.645-0.133-0.93-0.296l-0.756-0.438v4.965
		H29.05v-5.58l-0.58-0.336l-0.582,0.334v5.58h-1.063V67.85l-0.756,0.438c-0.286,0.163-0.605,0.265-0.933,0.295
		c-0.326,0.03-0.66-0.013-0.97-0.12c-0.172-0.061-0.363-0.066-0.54-0.02c-0.176,0.05-0.335,0.154-0.452,0.297
		c-0.116,0.14-0.19,0.316-0.203,0.5c-0.004,0.063-0.03,0.124-0.073,0.173c-0.045,0.046-0.103,0.08-0.165,0.09l-2.55,0.479
		c-0.038,0.006-0.077,0-0.11-0.015c-0.032-0.017-0.063-0.04-0.08-0.073c-0.02-0.031-0.03-0.069-0.024-0.106
		c0.004-0.037,0.02-0.072,0.043-0.101l1.69-1.973c0.04-0.048,0.098-0.08,0.16-0.095c0.063-0.013,0.13-0.005,0.186,0.022
		c0.164,0.078,0.353,0.104,0.534,0.073c0.18-0.03,0.35-0.116,0.48-0.245c0.13-0.125,0.22-0.296,0.255-0.475
		c0.06-0.323,0.19-0.633,0.38-0.9c0.19-0.268,0.438-0.494,0.723-0.658L25.18,65l-4.3-2.482l0.53-0.922l4.832,2.79l0.582-0.334V63.38
		l-4.832-2.79l0.53-0.922l4.302,2.482v-0.873c0-0.328,0.07-0.656,0.207-0.953c0.14-0.3,0.343-0.564,0.59-0.78
		c0.14-0.12,0.24-0.282,0.286-0.46c0.047-0.176,0.035-0.366-0.027-0.537c-0.065-0.17-0.183-0.322-0.334-0.426
		c-0.052-0.036-0.092-0.09-0.11-0.15c-0.022-0.06-0.022-0.126,0-0.187l0.863-2.447c0.01-0.035,0.034-0.065,0.063-0.087
		c0.03-0.022,0.067-0.034,0.105-0.034c0.036,0,0.074,0.012,0.104,0.033c0.03,0.02,0.053,0.05,0.064,0.086l0.863,2.447
		c0.02,0.06,0.02,0.127,0,0.187c-0.02,0.063-0.06,0.114-0.11,0.15c-0.15,0.105-0.27,0.256-0.332,0.427
		c-0.064,0.17-0.074,0.36-0.03,0.538c0.047,0.177,0.148,0.34,0.286,0.458c0.25,0.217,0.453,0.482,0.59,0.78
		c0.137,0.298,0.21,0.626,0.21,0.954v0.873l4.3-2.482l0.53,0.922l-4.83,2.79v0.672l0.58,0.333l4.83-2.79l0.534,0.923L31.756,65
		l0.756,0.437c0.284,0.165,0.53,0.392,0.722,0.661c0.19,0.266,0.32,0.574,0.38,0.897c0.035,0.18,0.124,0.351,0.255,0.476
		c0.132,0.131,0.303,0.217,0.482,0.246c0.18,0.03,0.37,0.004,0.534-0.072c0.06-0.028,0.125-0.037,0.186-0.023
		c0.063,0.014,0.12,0.047,0.16,0.095l1.69,1.972c0.024,0.028,0.04,0.063,0.043,0.101c0.005,0.038-0.005,0.075-0.024,0.108
		C36.925,69.926,36.896,69.951,36.863,69.967L36.863,69.967z M35.765,57.703c-1.91-1.91-4.595-3.022-7.296-3.022
		c-2.703,0-5.387,1.113-7.297,3.023c-1.91,1.91-3.022,4.594-3.022,7.296s1.113,5.387,3.023,7.297c1.91,1.91,4.594,3.02,7.296,3.02
		c2.7,0,5.385-1.109,7.295-3.02c1.91-1.91,3.024-4.595,3.024-7.296c0-2.702-1.114-5.387-3.025-7.297L35.765,57.703z M98.482,75.124
		V54.877h3.545v7.76h3.883v-7.76h3.624v20.247h-3.624v-8.89h-3.883v8.89H98.482 M46.625,67.292l-3.937-12.415h3.538l2.425,7.888
		l2.68-7.888h3.312l-4.08,12.012v8.234h-3.937L46.625,67.292 M67.684,75.124h3.175V59.86l2.711,13.27h2.963l2.404-13.483v15.477
		h3.72V54.877h-5.767l-1.701,9.63l-1.969-9.63h-5.537V75.124 M115.784,67.037l1.508-9.055l1.466,9.055H115.784z M120.338,54.877
		h-5.482l-3.701,20.247h3.281l0.787-4.712h4.079l0.765,4.712h3.613L120.338,54.877z M88.907,67.037l1.51-9.055l1.464,9.055H88.907
		L88.907,67.037z M93.462,54.877H87.98l-3.703,20.247h3.283l0.785-4.712h4.08l0.764,4.712h3.612L93.462,54.877z M58.108,67.037
		l1.51-9.055l1.465,9.055H58.108z M62.663,54.877H57.18l-3.7,20.247h3.28l0.787-4.712h4.08l0.763,4.712h3.614L62.663,54.877
		L62.663,54.877z"/>
</g>
<image overflow="visible" width="1366" height="768" xlink:href="EB668B6E.jpg"  transform="matrix(1 0 0 1 322 -111)">
</image>
</svg>
