<svg xmlns="http://www.w3.org/2000/svg" width="140" height="130" viewBox="0 0 140 130"><g fill="#0A51A1"><path d="M102.44 98.78c.765 0 1.405-.383 1.405-1.15v-7.228h3.39v7.57c0 2.28-1.49 3.048-3.452 3.048h-5.648c-.43 0-.896-.234-1.092-.598l-.873-1.45v-.192h6.27zm-6.272 2.24h.107l-.107-.172v.172zm0-2.047l-.105-.192h.105v.193zm0 1.875l-6.29-10.446H85.51l-6.207 10.32v.298h3.82l4.583-8.06 2.238 3.943h-2.56c-.426 0-.895.233-1.105.598l-.98 1.62H91.2l1.087 1.9h3.88v-.172zM79.3 99.188v-8.786h.173v7.57c0 .468-.043.85-.172 1.216zm0-8.787v8.787c-.444 1.344-1.704 1.832-3.26 1.832h-5.65c-.43 0-.897-.235-1.11-.6l-.873-1.448v-.192h6.29c.77 0 1.386-.383 1.386-1.15v-7.228H79.3zm0 10.32l-.17.3h.17v-.3zm-10.893.3h.105l-.105-.172v.172zm0-2.24v.192l-.107-.192h.107zm0 2.068l-6.27-10.446h-4.351l-6.204 10.32v.298h3.816l4.563-8.06 2.24 3.943h-2.56c-.406 0-.898.233-1.088.6l-.982 1.618h5.886l1.064 1.9h3.883v-.173h.004zm-16.826-1.66v-1.963c.128.3.192.597.192.938 0 .384-.064.724-.19 1.025zm0-5.14v-1.812c.128.275.192.596.192.96 0 .297-.064.595-.19.853zm0-1.812v1.813c-.362.785-1.193 1.34-2.13 1.574 1.107.343 1.833.898 2.13 1.603v1.962c-.662 1.64-3.027 1.832-4.777 1.832H44.48v-2.24h2.282c.703.02 1.258-.488 1.258-1.107s-.555-1.108-1.258-1.108H44.48v-2.24h2.323c.662 0 1.217-.317 1.217-.85 0-.535-.533-.835-1.217-.835H44.48v-2.237h2.323c1.622-.004 4.096.19 4.778 1.83zm0 8.487l-.17.297h.17v-.297zM44.48 90.4v2.238h-3.54v3.925l.98-1.642c.214-.362.684-.598 1.11-.598h1.448v2.24h-3.54v4.456l.98-1.644c.215-.34.685-.598 1.112-.598h1.447v2.24h-6.93V90.4h6.932zm-3.54 6.163zM55.78 56.344l-8.142-3.735-.05-9.77 18.82 8.62 5.026-2.298c.338-.193.627-.48.627-.862 0-.38-.288-.67-.673-.86l-16.95-7.71 15.134-6.946c.384-.146.812-.237 1.292-.237.43 0 .91.092 1.293.237l22.697 10.393c1.053.528 2.344 1.052 2.344 2.54 0 1.435-1.193 1.913-2.295 2.44l-17.86 8.188 17.86 8.14c1.102.526 2.295 1.005 2.295 2.44 0 1.485-1.29 2.012-2.344 2.54l-22.696 10.39c-.383.145-.863.237-1.293.237-.48 0-.907-.094-1.29-.238l-15.133-6.94 16.95-7.71c.384-.19.673-.48.673-.863 0-.38-.29-.667-.627-.86l-5.025-2.3L47.59 69.8l.05-9.77 8.14-3.686z"/></g></svg>