<svg xmlns="http://www.w3.org/2000/svg" width="140" height="130" viewBox="0 0 140 130"><path d="M72 98.75C53.39 98.75 38.25 83.61 38.25 65S53.39 31.25 72 31.25c18.61 0 33.75 15.14 33.75 33.75S90.61 98.75 72 98.75zm0-66.94C53.7 31.81 38.81 46.7 38.81 65c0 18.3 14.89 33.19 33.19 33.19S105.19 83.3 105.19 65c0-18.302-14.887-33.19-33.19-33.19z"/><path d="M103.868 65c0-17.602-14.27-31.87-31.868-31.87C54.4 33.13 40.13 47.4 40.13 65S54.4 96.867 72 96.867 103.868 82.602 103.868 65z"/><path fill="#FFF" d="M58.208 47.087c-.12-.85-.635-1.567-1.42-1.925-.79-.357-1.707-.224-2.402.27-.056.04-.11.088-.164.133.116-.395.15-.79.053-1.195-.095-.392-.302-.755-.592-1.038-.59-.576-1.485-.766-2.258-.477-.365.137-.69.37-.934.673-.136.174-.273.345-.412.52-.724.9-1.444 1.803-2.165 2.705-.622.773-1.24 1.55-1.86 2.322l-.122.153c-.003.002.08.067.085.07.24.193.482.384.723.58l2.73 2.183c.9.723 1.8 1.442 2.7 2.164l.69.554c.01.007.063.06.07.05.047-.06.093-.115.14-.173.616-.772 1.235-1.545 1.853-2.315.74-.926 1.482-1.85 2.223-2.774.383-.48.806-.928.986-1.53.093-.307.108-.63.078-.95zm-7.977 2.61c-.375-.3-.75-.603-1.123-.9-.143-.114-.286-.23-.43-.343-.003-.004.147-.19.158-.2.698-.872 1.396-1.745 2.094-2.615.184-.23.348-.478.632-.595.386-.16.84-.058 1.12.252.226.25.3.59.228.912-.084.29-.29.5-.472.73l-1.103 1.376c-.368.46-.734.92-1.104 1.38zm5.538-1.073l-.71.888-1.953 2.438c-.002.004-.02.03-.024.027-.033-.025-.065-.053-.1-.08l-.532-.426-.92-.736c.59-.737 1.182-1.474 1.77-2.212l.863-1.08c.206-.256.467-.438.81-.45.41-.013.768.228.942.59.146.353.096.742-.144 1.042zM91.918 65C91.918 53.998 83 45.082 72 45.082S52.08 53.998 52.08 65C52.08 76 61 84.917 72 84.917S91.918 76 91.918 65z"/><path fill="#0090D3" d="M72 46.09C61.678 46.36 53.358 54.68 53.092 65H72V46.09zM72 83.907C82.322 83.64 90.64 75.322 90.908 65H72v18.907z"/><path fill="#FFF" d="M93.247 43.204l-1.66-1.542L86.2 48.74l1.657 1.54 5.91-2.71-3.938 5.174 1.143 1.957 8.086-3.71-1.144-1.955-4.667 2.14 3.316-4.358-1.45-1.813-4.977 2.284M69.068 37.778l2.102 5.976h1.66l2.102-5.976.222 5.976 2.323.33-.332-8.96-2.99-.334L72 41.097l-2.158-6.307-2.99.333-.33 8.962 2.325-.33"/></svg>